<svg xmlns="http://www.w3.org/2000/svg" width="23.75" height="23.75" viewBox="0 0 23.75 23.75">
  <g id="streamline-icon-farming-barn-sun_20x20" data-name="streamline-icon-farming-barn-sun@20x20" transform="translate(-0.125 -0.125)">
    <path id="Path" d="M0,.5H22.5" transform="translate(0.75 10)" fill="none" stroke="#009ee2" stroke-linecap="round" stroke-linejoin="round" stroke-miterlimit="10" stroke-width="1.25"/>
    <path id="Path-2" data-name="Path" d="M0,.5H8.25" transform="translate(15 14.5)" fill="none" stroke="#009ee2" stroke-linecap="round" stroke-linejoin="round" stroke-miterlimit="10" stroke-width="1.25"/>
    <path id="Path-3" data-name="Path" d="M0,.5H6.75" transform="translate(16.5 19)" fill="none" stroke="#009ee2" stroke-linecap="round" stroke-linejoin="round" stroke-miterlimit="10" stroke-width="1.25"/>
    <path id="Path-4" data-name="Path" d="M0,8.25V3.75L3,0,6,3.75v4.5Z" transform="translate(6.75 15)" fill="none" stroke="#009ee2" stroke-linecap="round" stroke-linejoin="round" stroke-miterlimit="10" stroke-width="1.25"/>
    <path id="Path-5" data-name="Path" d="M9,0H2.25L0,3.75v4.5H6" transform="translate(0.75 15)" fill="none" stroke="#009ee2" stroke-linecap="round" stroke-linejoin="round" stroke-miterlimit="10" stroke-width="1.25"/>
    <path id="Path-6" data-name="Path" d="M0,4.5a4.5,4.5,0,0,1,9,0" transform="translate(11.25 6)" fill="none" stroke="#009ee2" stroke-linecap="round" stroke-linejoin="round" stroke-miterlimit="10" stroke-width="1.25"/>
    <path id="Path-7" data-name="Path" d="M.5,2.25V0" transform="translate(15.25 0.75)" fill="none" stroke="#009ee2" stroke-linecap="round" stroke-linejoin="round" stroke-miterlimit="10" stroke-width="1.25"/>
    <path id="Path-8" data-name="Path" d="M0,1.591,1.591,0" transform="translate(21.053 3.606)" fill="none" stroke="#009ee2" stroke-linecap="round" stroke-linejoin="round" stroke-miterlimit="10" stroke-width="1.25"/>
    <path id="Path-9" data-name="Path" d="M1.591,1.591,0,0" transform="translate(8.856 3.606)" fill="none" stroke="#009ee2" stroke-linecap="round" stroke-linejoin="round" stroke-miterlimit="10" stroke-width="1.25"/>
  </g>
</svg>
