<svg id="arrow_copy_4" data-name="arrow copy 4" xmlns="http://www.w3.org/2000/svg" width="28" height="28" viewBox="0 0 28 28">
  <rect id="icon_stroke_24_arrow_digram_left_background" data-name="icon / stroke / 24 arrow / digram left background" width="28" height="28" fill="none"/>
  <path id="Stroke_colour" data-name="Stroke colour" d="M7.134,13.15l.368-.368a.625.625,0,0,0,0-.884L3.131,7.552H22.708a.625.625,0,0,0,.625-.625V6.406a.625.625,0,0,0-.625-.625H3.131L7.5,1.435a.625.625,0,0,0,0-.884L7.134.183a.625.625,0,0,0-.884,0L.183,6.225a.625.625,0,0,0,0,.884L6.25,13.15A.625.625,0,0,0,7.134,13.15Z" transform="translate(2.333 7.333)" fill="#333"/>
</svg>
