<svg xmlns="http://www.w3.org/2000/svg" width="62" height="65" viewBox="0 0 62 65">
  <g id="cooperate" transform="translate(0 0)">
    <path id="Shape" d="M22.4,63.718a4.771,4.771,0,0,1-1.133-2.009,4.363,4.363,0,0,1-5.63-5.683,4.353,4.353,0,0,1-2.012-1.145,4.455,4.455,0,0,1,.139-6.335,4.347,4.347,0,0,1-1.591-1.015,4.511,4.511,0,0,1-1.112-4.093l-.149-.148a8.767,8.767,0,0,1-2.631-5.468c0-.006,0-.013,0-.019L8,33.722A6.288,6.288,0,0,0,6.363,30L.5,25.484A1.267,1.267,0,0,1,0,24.478V1.27A1.271,1.271,0,0,1,2.119.324s17.862,16,17.892,16.029a6.438,6.438,0,0,0,5.873,1.874l2.818-.556a8.707,8.707,0,0,1,7.432,2.51c.278-.042.552-.08.819-.117,1.866-.259,3.339-.463,4.682-1.8l3.6-3.557a1.271,1.271,0,0,1,1.787,1.806l-3.6,3.551a8.518,8.518,0,0,1-5.047,2.36l4.886,4.873a4,4,0,0,1,.723,4.631L39.68,40.253a2.916,2.916,0,0,1-4.62.717c-2.734-2.732-2.777-6.582-1.172-9.9l-2-2a2.744,2.744,0,0,0-3.836,0L13.97,43.131a2,2,0,0,0,0,2.606,1.849,1.849,0,0,0,2.607,0l0,0,8.947-8.939a1.271,1.271,0,0,1,1.8,1.8L15.467,50.438a1.844,1.844,0,1,0,2.563,2.651h0L29.7,41.433a1.27,1.27,0,0,1,1.8,1.8L18.437,56.273A1.844,1.844,0,1,0,21,58.921L34.066,45.869a1.27,1.27,0,0,1,1.8,1.8l-11.615,11.6a1.841,1.841,0,0,0-.01,2.694,1.865,1.865,0,0,0,2.569-.039L42.313,46.433a1.287,1.287,0,0,1,1.8,0l3.058,3.058,4.576-4.57a6.219,6.219,0,0,0,1.792-5.134s-.3-2.375-.377-2.807c-.374-2.067-.886-4.9,1.662-7.445.029-.028.059-.056.091-.081l4.545-3.742L59.39,4.3,55.043,8.592a1.27,1.27,0,1,1-1.787-1.806l6.5-6.42a1.271,1.271,0,0,1,2.165.9L62,26.306a1.272,1.272,0,0,1-.463.984l-4.961,4.083c-1.562,1.594-1.264,3.245-.918,5.156.082.453.4,2.97.4,2.97a8.744,8.744,0,0,1-2.519,7.218l-4.605,4.6a4.388,4.388,0,0,1-.369,5.739,4.435,4.435,0,0,1-4.7,1.006,4.342,4.342,0,0,1-1.127,1.99,4.428,4.428,0,0,1-4.006,1.21,4.348,4.348,0,0,1-1.21,2.39,4.432,4.432,0,0,1-6.2.031l-1.341-1.34L28.6,63.718a4.393,4.393,0,0,1-6.2,0Z" fill="#009ee2"/>
    <path id="Path" d="M.111,2.088a1.509,1.509,0,0,0,2.824-.14A1.516,1.516,0,0,0,.759.193,1.531,1.531,0,0,0,.111,2.088Z" transform="translate(49 10)" fill="#009ee2"/>
  </g>
</svg>
