<svg id="volunteer" xmlns="http://www.w3.org/2000/svg" width="66.129" height="72" viewBox="0 0 66.129 72">
  <path id="Shape" d="M7.681,14.214a1.594,1.594,0,0,1-.966-.447l-.031-.025a.958.958,0,0,1-.085-.076L1.451,8.524l-.019-.019a5.3,5.3,0,0,1,0-7.247C3.044-.421,5.7-.408,7.724,1.244c2.027-1.654,4.682-1.668,6.291.014a5.291,5.291,0,0,1,0,7.248L14,8.524l-.617.615L8.853,13.665a.979.979,0,0,1-.085.076l-.03.024a1.6,1.6,0,0,1-.972.448H7.681Z" transform="translate(18.85 0.927)" fill="#009ee2"/>
  <path id="Shape-2" data-name="Shape" d="M2.547,58.712A1.742,1.742,0,0,1,.81,56.969v-6.6a1.05,1.05,0,1,1,2.1,0V56.6H22.828V37.359H2.911v7.747a1.05,1.05,0,1,1-2.1,0V36.994a1.742,1.742,0,0,1,1-1.575A7.645,7.645,0,0,1,0,29.976l0-18.62A3.276,3.276,0,0,1,3.273,8.168a3.137,3.137,0,0,1,1.073.188V5.49a3.611,3.611,0,0,1,3.6-3.61,3.563,3.563,0,0,1,1.733.447,3.6,3.6,0,0,1,6.961,1.234,3.6,3.6,0,0,1,5.1,3.283V19.83a5.906,5.906,0,0,1,.622-.5,4.632,4.632,0,0,1,4.332-.616,2.325,2.325,0,0,1,1.733,2.255,9.12,9.12,0,0,1-.811,2.906,39.724,39.724,0,0,0-2.225,7.837,10.807,10.807,0,0,1-1.425,3.719,1.743,1.743,0,0,1,.96,1.558V56.969A1.74,1.74,0,0,1,23.2,58.712Z" transform="translate(0 13.288)" fill="#009ee2"/>
  <path id="Shape-3" data-name="Shape" d="M2.72,72A1.835,1.835,0,0,1,.891,70.164V58.277a1.053,1.053,0,1,1,2.106,0V69.89H25.02V64.4l-2.674,2.654a.958.958,0,0,1-.085.076l-.071.057a1.792,1.792,0,0,1-1.1.516h-.061a1.814,1.814,0,0,1-1.119-.527l-.056-.044a1.137,1.137,0,0,1-.085-.076l-7.249-7.2-.016-.017a6.95,6.95,0,0,1,0-9.559c2.175-2.259,5.836-2.149,8.555.24A7.289,7.289,0,0,1,25.02,48.7V40.677H3v12.73a1.053,1.053,0,1,1-2.106,0v-13a1.837,1.837,0,0,1,1.169-1.71c-1.014-1.051-2.033-2.8-2.052-6L0,12.321A3.487,3.487,0,0,1,3.492,8.934a3.361,3.361,0,0,1,1.274.25V5.9a3.842,3.842,0,0,1,5.8-3.317,3.847,3.847,0,0,1,7.482,1.264v.1a3.843,3.843,0,0,1,5.585,3.435V21.821a6.347,6.347,0,0,1,.837-.689,4.984,4.984,0,0,1,4.654-.662,2.451,2.451,0,0,1,1.835,2.375,9.9,9.9,0,0,1-.883,3.147,43.545,43.545,0,0,0-2.444,8.593,11.735,11.735,0,0,1-1.607,4.135,1.839,1.839,0,0,1,1.1,1.684v8.432a5.242,5.242,0,0,1,2.488,1.447,6.949,6.949,0,0,1,0,9.559l-.019.019L27.125,62.31v7.854A1.834,1.834,0,0,1,25.3,72Z" transform="translate(34.609)" fill="#009ee2"/>
</svg>
